<?xml version="1.0" ?><svg viewBox="0 0 414.5 412" xmlns="http://www.w3.org/2000/svg"><defs><style>.cls-1{fill:#fff;}.cls-2{fill:#e7e7e7;}.cls-3{fill:#6ae184;}.cls-4{fill:#389d9c;}.cls-4,.cls-6{opacity:0.5;}.cls-5{fill:#32caf8;}.cls-6{fill:#6969d1;}.cls-7{fill:#426572;}</style></defs><title/><g data-name="Layer 2" id="Layer_2"><g data-name="Layer 1" id="Layer_1-2"><rect class="cls-1" height="179" rx="19.39" ry="19.39" width="179" x="229.5" y="227"/><path class="cls-2" d="M408.5,246.39V386.61A19.39,19.39,0,0,1,389.11,406H248.89a19.37,19.37,0,0,1-19.33-18H365.11a19.39,19.39,0,0,0,19.39-19.39V228.39c0-.47,0-.93-.06-1.39h4.67A19.39,19.39,0,0,1,408.5,246.39Z"/><rect class="cls-3" height="179" rx="19.39" ry="19.39" width="179" x="229.5" y="6"/><path class="cls-4" d="M408.5,25.39V165.61A19.39,19.39,0,0,1,389.11,185H248.89a19.38,19.38,0,0,1-19.34-18.05c.44,0,.89.05,1.34.05H371.11a19.39,19.39,0,0,0,19.39-19.39V7.39c0-.45,0-.9,0-1.34A19.38,19.38,0,0,1,408.5,25.39Z"/><rect class="cls-5" height="397.5" rx="19.39" ry="19.39" width="179" x="6" y="8.5"/><path class="cls-6" d="M188,27.89V386.61A19.39,19.39,0,0,1,168.61,406H28.39A19.37,19.37,0,0,1,9.06,388H147.61A19.39,19.39,0,0,0,167,368.61V9.89c0-.47,0-.93-.06-1.39h1.67A19.39,19.39,0,0,1,188,27.89Z"/><ellipse class="cls-1" cx="32.45" cy="62.47" rx="3.83" ry="28.26" transform="translate(-1.12 0.59) rotate(-1.03)"/><ellipse class="cls-1" cx="33.28" cy="117.78" rx="3.83" ry="14.13" transform="translate(-2.11 0.62) rotate(-1.03)"/><path class="cls-7" d="M165.61,412H25.39A25.42,25.42,0,0,1,0,386.61V27.89A25.42,25.42,0,0,1,25.39,2.5H165.61A25.42,25.42,0,0,1,191,27.89V386.61A25.42,25.42,0,0,1,165.61,412ZM25.39,14.5A13.41,13.41,0,0,0,12,27.89V386.61A13.41,13.41,0,0,0,25.39,400H165.61A13.41,13.41,0,0,0,179,386.61V27.89A13.41,13.41,0,0,0,165.61,14.5Z"/><path class="cls-7" d="M389.11,412H248.89a25.42,25.42,0,0,1-25.39-25.39V246.39A25.42,25.42,0,0,1,248.89,221H389.11a25.42,25.42,0,0,1,25.39,25.39V386.61A25.42,25.42,0,0,1,389.11,412ZM248.89,233a13.41,13.41,0,0,0-13.39,13.39V386.61A13.41,13.41,0,0,0,248.89,400H389.11a13.41,13.41,0,0,0,13.39-13.39V246.39A13.41,13.41,0,0,0,389.11,233Z"/><path class="cls-7" d="M389.11,191H248.89a25.42,25.42,0,0,1-25.39-25.39V25.39A25.42,25.42,0,0,1,248.89,0H389.11A25.42,25.42,0,0,1,414.5,25.39V165.61A25.42,25.42,0,0,1,389.11,191ZM248.89,12A13.41,13.41,0,0,0,235.5,25.39V165.61A13.41,13.41,0,0,0,248.89,179H389.11a13.41,13.41,0,0,0,13.39-13.39V25.39A13.41,13.41,0,0,0,389.11,12Z"/></g></g></svg>