<svg viewBox="0 0 414.5 412" xmlns="http://www.w3.org/2000/svg"><rect fill="#fff" height="179" rx="19.39" width="179" x="229.5" y="227"/><path d="m408.5 246.39v140.22a19.39 19.39 0 0 1 -19.39 19.39h-140.22a19.37 19.37 0 0 1 -19.33-18h135.55a19.39 19.39 0 0 0 19.39-19.39v-140.22c0-.47 0-.93-.06-1.39h4.67a19.39 19.39 0 0 1 19.39 19.39z" fill="#e7e7e7"/><rect fill="#6ae184" height="179" rx="19.39" width="179" x="229.5" y="6"/><path d="m408.5 25.39v140.22a19.39 19.39 0 0 1 -19.39 19.39h-140.22a19.38 19.38 0 0 1 -19.34-18.05c.44 0 .89.05 1.34.05h140.22a19.39 19.39 0 0 0 19.39-19.39v-140.22c0-.45 0-.9 0-1.34a19.38 19.38 0 0 1 18 19.34z" fill="#389d9c" opacity=".5"/><rect fill="#32caf8" height="397.5" rx="19.39" width="179" x="6" y="8.5"/><path d="m188 27.89v358.72a19.39 19.39 0 0 1 -19.39 19.39h-140.22a19.37 19.37 0 0 1 -19.33-18h138.55a19.39 19.39 0 0 0 19.39-19.39v-358.72c0-.47 0-.93-.06-1.39h1.67a19.39 19.39 0 0 1 19.39 19.39z" fill="#6969d1" opacity=".5"/><ellipse cx="32.45" cy="62.47" fill="#fff" rx="3.83" ry="28.26" transform="matrix(.99983842 -.01797592 .01797592 .99983842 -1.12 .59)"/><ellipse cx="33.28" cy="117.78" fill="#fff" rx="3.83" ry="14.13" transform="matrix(.99983842 -.01797592 .01797592 .99983842 -2.11 .62)"/><g fill="#426572"><path d="m165.61 412h-140.22a25.42 25.42 0 0 1 -25.39-25.39v-358.72a25.42 25.42 0 0 1 25.39-25.39h140.22a25.42 25.42 0 0 1 25.39 25.39v358.72a25.42 25.42 0 0 1 -25.39 25.39zm-140.22-397.5a13.41 13.41 0 0 0 -13.39 13.39v358.72a13.41 13.41 0 0 0 13.39 13.39h140.22a13.41 13.41 0 0 0 13.39-13.39v-358.72a13.41 13.41 0 0 0 -13.39-13.39z"/><path d="m389.11 412h-140.22a25.42 25.42 0 0 1 -25.39-25.39v-140.22a25.42 25.42 0 0 1 25.39-25.39h140.22a25.42 25.42 0 0 1 25.39 25.39v140.22a25.42 25.42 0 0 1 -25.39 25.39zm-140.22-179a13.41 13.41 0 0 0 -13.39 13.39v140.22a13.41 13.41 0 0 0 13.39 13.39h140.22a13.41 13.41 0 0 0 13.39-13.39v-140.22a13.41 13.41 0 0 0 -13.39-13.39z"/><path d="m389.11 191h-140.22a25.42 25.42 0 0 1 -25.39-25.39v-140.22a25.42 25.42 0 0 1 25.39-25.39h140.22a25.42 25.42 0 0 1 25.39 25.39v140.22a25.42 25.42 0 0 1 -25.39 25.39zm-140.22-179a13.41 13.41 0 0 0 -13.39 13.39v140.22a13.41 13.41 0 0 0 13.39 13.39h140.22a13.41 13.41 0 0 0 13.39-13.39v-140.22a13.41 13.41 0 0 0 -13.39-13.39z"/></g></svg>